<?xml version="1.0" encoding="utf-8"?>
<!-- Generator: Adobe Illustrator 19.0.0, SVG Export Plug-In . SVG Version: 6.00 Build 0)  -->
<svg version="1.1" id="Layer_1" xmlns="http://www.w3.org/2000/svg" xmlns:xlink="http://www.w3.org/1999/xlink" x="0px" y="0px"
	 viewBox="0 0 105 31" style="enable-background:new 0 0 105 31;" xml:space="preserve">
<style type="text/css">
	.st0{fill:#FFFFFF;}
</style>
<g id="XMLID_2_">
	<g id="XMLID_53_">
		<g id="XMLID_54_">
			<path id="XMLID_56_" class="st0" d="M18.4,14c0-3,2.4-4.4,2.6-4.5c-1.4-2-3.6-2.3-4.3-2.3C14.8,7,13,8.3,12.1,8.3
				c-0.9,0-2.4-1.1-3.9-1c-2,0-3.8,1.2-4.9,3c-2.1,3.6-0.5,9,1.5,11.9c1,1.4,2.2,3,3.7,3c1.5-0.1,2.1-1,3.9-1c1.8,0,2.3,1,3.9,0.9
				c1.6,0,2.6-1.4,3.6-2.9c1.2-1.7,1.6-3.3,1.7-3.4C21.5,18.8,18.4,17.6,18.4,14z"/>
			<path id="XMLID_55_" class="st0" d="M15.4,5.3c0.8-1,1.4-2.4,1.2-3.8c-1.2,0.1-2.6,0.8-3.5,1.8c-0.7,0.9-1.4,2.3-1.2,3.7
				C13.2,7,14.5,6.2,15.4,5.3z"/>
		</g>
	</g>
	<g id="XMLID_34_">
		<path id="XMLID_50_" class="st0" d="M40.2,24.9h-2.1l-1.2-3.6h-4l-1.1,3.6h-2.1l4-12.3h2.5L40.2,24.9z M36.6,19.8l-1-3.2
			c-0.1-0.3-0.3-1.1-0.6-2.3h0c-0.1,0.5-0.3,1.3-0.6,2.3l-1,3.2H36.6z"/>
		<path id="XMLID_47_" class="st0" d="M50.4,20.4c0,1.5-0.4,2.7-1.2,3.6c-0.7,0.8-1.6,1.2-2.7,1.2c-1.2,0-2-0.4-2.5-1.3h0v4.7h-2
			v-9.6c0-1,0-1.9-0.1-2.9h1.7l0.1,1.4h0c0.7-1.1,1.7-1.6,3-1.6c1.1,0,1.9,0.4,2.6,1.2C50,17.9,50.4,19,50.4,20.4z M48.4,20.4
			c0-0.9-0.2-1.6-0.6-2.1c-0.4-0.6-1-0.9-1.7-0.9c-0.5,0-0.9,0.2-1.3,0.5c-0.4,0.3-0.7,0.7-0.8,1.3c-0.1,0.2-0.1,0.4-0.1,0.6v1.5
			c0,0.6,0.2,1.2,0.6,1.6s0.9,0.7,1.5,0.7c0.7,0,1.3-0.3,1.7-0.9C48.2,22.1,48.4,21.4,48.4,20.4z"/>
		<path id="XMLID_44_" class="st0" d="M60.6,20.4c0,1.5-0.4,2.7-1.2,3.6c-0.7,0.8-1.6,1.2-2.7,1.2c-1.2,0-2-0.4-2.5-1.3h0v4.7h-2
			v-9.6c0-1,0-1.9-0.1-2.9h1.7l0.1,1.4h0c0.7-1.1,1.7-1.6,3-1.6c1,0,1.9,0.4,2.6,1.2C60.3,17.9,60.6,19,60.6,20.4z M58.6,20.4
			c0-0.9-0.2-1.6-0.6-2.1c-0.4-0.6-1-0.9-1.7-0.9c-0.5,0-0.9,0.2-1.3,0.5c-0.4,0.3-0.7,0.7-0.8,1.3c-0.1,0.2-0.1,0.4-0.1,0.6v1.5
			c0,0.6,0.2,1.2,0.6,1.6c0.4,0.4,0.9,0.7,1.5,0.7c0.7,0,1.3-0.3,1.7-0.9C58.4,22.1,58.6,21.4,58.6,20.4z"/>
		<path id="XMLID_43_" class="st0" d="M72.1,21.5c0,1.1-0.4,1.9-1.1,2.6c-0.8,0.7-1.9,1.1-3.4,1.1c-1.3,0-2.4-0.3-3.2-0.8l0.5-1.6
			c0.9,0.5,1.8,0.8,2.9,0.8c0.7,0,1.3-0.2,1.7-0.5c0.4-0.3,0.6-0.8,0.6-1.3c0-0.5-0.2-0.9-0.5-1.3c-0.3-0.3-0.9-0.7-1.7-1
			c-2.2-0.8-3.2-2-3.2-3.5c0-1,0.4-1.8,1.1-2.5c0.8-0.6,1.8-1,3-1c1.1,0,2.1,0.2,2.8,0.6l-0.5,1.6c-0.7-0.4-1.5-0.6-2.4-0.6
			c-0.7,0-1.2,0.2-1.6,0.5c-0.3,0.3-0.5,0.7-0.5,1.1c0,0.5,0.2,0.9,0.6,1.2c0.3,0.3,0.9,0.6,1.8,1c1.1,0.4,1.8,0.9,2.3,1.5
			C71.8,19.9,72.1,20.6,72.1,21.5z"/>
		<path id="XMLID_42_" class="st0" d="M78.6,17.5h-2.2v4.3c0,1.1,0.4,1.6,1.2,1.6c0.4,0,0.6,0,0.9-0.1l0.1,1.5
			c-0.4,0.1-0.9,0.2-1.5,0.2c-0.8,0-1.4-0.2-1.8-0.7c-0.4-0.5-0.7-1.3-0.7-2.4v-4.5h-1.3V16h1.3v-1.6l1.9-0.6V16h2.2L78.6,17.5z"/>
		<path id="XMLID_39_" class="st0" d="M88.5,20.4c0,1.4-0.4,2.5-1.2,3.4c-0.8,0.9-1.9,1.4-3.3,1.4c-1.3,0-2.3-0.4-3.1-1.3
			c-0.8-0.9-1.2-2-1.2-3.3c0-1.4,0.4-2.5,1.2-3.4c0.8-0.9,1.9-1.3,3.2-1.3c1.3,0,2.4,0.4,3.2,1.3C88.1,18,88.5,19.1,88.5,20.4z
			 M86.4,20.5c0-0.8-0.2-1.5-0.5-2.1c-0.4-0.7-1-1.1-1.8-1.1c-0.8,0-1.4,0.4-1.8,1.1c-0.4,0.6-0.5,1.3-0.5,2.1
			c0,0.8,0.2,1.5,0.5,2.1c0.4,0.7,1,1.1,1.8,1.1c0.8,0,1.3-0.4,1.8-1.1C86.2,22,86.4,21.3,86.4,20.5z"/>
		<path id="XMLID_38_" class="st0" d="M94.9,17.8c-0.2,0-0.4-0.1-0.6-0.1c-0.7,0-1.2,0.3-1.6,0.8c-0.3,0.5-0.5,1.1-0.5,1.8v4.7h-2
			l0-6.1c0-1,0-2-0.1-2.8h1.7l0.1,1.7H92c0.2-0.6,0.5-1.1,1-1.4c0.4-0.3,0.9-0.5,1.4-0.5c0.2,0,0.3,0,0.5,0L94.9,17.8z"/>
		<path id="XMLID_35_" class="st0" d="M103.7,20c0,0.4,0,0.7-0.1,0.9h-5.9c0,0.9,0.3,1.6,0.9,2c0.5,0.4,1.1,0.6,1.9,0.6
			c0.9,0,1.7-0.1,2.4-0.4l0.3,1.4c-0.8,0.4-1.8,0.6-3,0.6c-1.4,0-2.5-0.4-3.3-1.2c-0.8-0.8-1.2-1.9-1.2-3.3c0-1.3,0.4-2.5,1.1-3.4
			c0.8-1,1.8-1.4,3.1-1.4c1.3,0,2.3,0.5,2.9,1.4C103.5,18,103.7,18.9,103.7,20z M101.8,19.5c0-0.6-0.1-1.1-0.4-1.5
			c-0.3-0.6-0.9-0.8-1.6-0.8c-0.6,0-1.2,0.3-1.6,0.8c-0.3,0.4-0.5,0.9-0.6,1.5L101.8,19.5L101.8,19.5z"/>
	</g>
	<g id="XMLID_3_">
		<g id="XMLID_4_">
			<path id="XMLID_31_" class="st0" d="M35.9,5c0,1.1-0.3,1.9-1,2.5c-0.6,0.5-1.5,0.8-2.6,0.8c-0.6,0-1,0-1.4-0.1v-6
				C31.4,2.1,32,2,32.6,2c1.1,0,1.9,0.2,2.4,0.7C35.6,3.3,35.9,4,35.9,5z M34.9,5c0-0.7-0.2-1.3-0.6-1.6c-0.4-0.4-0.9-0.6-1.6-0.6
				c-0.3,0-0.6,0-0.8,0.1v4.5c0.1,0,0.3,0,0.7,0c0.7,0,1.3-0.2,1.7-0.6C34.7,6.4,34.9,5.8,34.9,5z"/>
			<path id="XMLID_28_" class="st0" d="M41.3,5.9c0,0.7-0.2,1.2-0.6,1.7c-0.4,0.4-0.9,0.7-1.6,0.7c-0.6,0-1.2-0.2-1.5-0.6
				c-0.4-0.4-0.6-1-0.6-1.6c0-0.7,0.2-1.2,0.6-1.7s0.9-0.6,1.6-0.6c0.6,0,1.2,0.2,1.5,0.6C41.2,4.7,41.3,5.3,41.3,5.9z M40.3,6
				c0-0.4-0.1-0.7-0.3-1c-0.2-0.3-0.5-0.5-0.9-0.5c-0.4,0-0.7,0.2-0.9,0.5c-0.2,0.3-0.3,0.6-0.3,1.1c0,0.4,0.1,0.7,0.3,1
				c0.2,0.3,0.5,0.5,0.9,0.5c0.4,0,0.7-0.2,0.9-0.5C40.2,6.7,40.3,6.4,40.3,6z"/>
			<path id="XMLID_27_" class="st0" d="M48.6,3.8l-1.4,4.4h-0.9l-0.6-1.9c-0.1-0.5-0.3-0.9-0.4-1.4h0c-0.1,0.5-0.2,1-0.4,1.4
				l-0.6,1.9h-0.9l-1.3-4.4h1l0.5,2.1c0.1,0.5,0.2,1,0.3,1.4h0c0.1-0.4,0.2-0.8,0.4-1.4l0.6-2.1h0.8l0.6,2c0.1,0.5,0.3,1,0.4,1.4h0
				c0.1-0.4,0.2-0.9,0.3-1.4l0.5-2L48.6,3.8L48.6,3.8z"/>
			<path id="XMLID_26_" class="st0" d="M53.7,8.2h-1V5.6c0-0.8-0.3-1.2-0.9-1.2c-0.3,0-0.5,0.1-0.7,0.3c-0.2,0.2-0.3,0.5-0.3,0.7
				v2.6h-1V5c0-0.4,0-0.8,0-1.3h0.9l0,0.7h0c0.1-0.2,0.3-0.4,0.5-0.5c0.3-0.2,0.6-0.2,0.9-0.2c0.4,0,0.7,0.1,1,0.4
				c0.3,0.3,0.5,0.8,0.5,1.4V8.2z"/>
			<path id="XMLID_25_" class="st0" d="M56.4,8.2h-1V1.8h1V8.2z"/>
			<path id="XMLID_22_" class="st0" d="M62.1,5.9c0,0.7-0.2,1.2-0.6,1.7c-0.4,0.4-0.9,0.7-1.6,0.7c-0.6,0-1.2-0.2-1.5-0.6
				c-0.4-0.4-0.6-1-0.6-1.6c0-0.7,0.2-1.2,0.6-1.7c0.4-0.4,0.9-0.6,1.6-0.6c0.6,0,1.2,0.2,1.5,0.6C61.9,4.7,62.1,5.3,62.1,5.9z
				 M61.1,6c0-0.4-0.1-0.7-0.3-1c-0.2-0.3-0.5-0.5-0.9-0.5c-0.4,0-0.7,0.2-0.9,0.5c-0.2,0.3-0.3,0.6-0.3,1.1c0,0.4,0.1,0.7,0.3,1
				c0.2,0.3,0.5,0.5,0.9,0.5c0.4,0,0.7-0.2,0.9-0.5C61,6.7,61.1,6.4,61.1,6z"/>
			<path id="XMLID_18_" class="st0" d="M66.8,8.2h-0.9l-0.1-0.5h0c-0.3,0.4-0.7,0.6-1.3,0.6c-0.4,0-0.7-0.1-1-0.4
				c-0.2-0.2-0.3-0.5-0.3-0.9c0-0.5,0.2-0.9,0.7-1.2c0.4-0.3,1.1-0.4,1.9-0.4V5.2c0-0.6-0.3-0.9-0.9-0.9c-0.4,0-0.8,0.1-1.1,0.3
				l-0.2-0.6c0.4-0.3,0.9-0.4,1.5-0.4c1.1,0,1.7,0.6,1.7,1.8v1.6C66.7,7.5,66.7,7.9,66.8,8.2z M65.8,6.6V6c-1.1,0-1.6,0.3-1.6,0.9
				c0,0.2,0.1,0.4,0.2,0.5c0.1,0.1,0.3,0.2,0.5,0.2c0.2,0,0.4-0.1,0.6-0.2c0.2-0.1,0.3-0.3,0.3-0.5C65.8,6.8,65.8,6.7,65.8,6.6z"/>
			<path id="XMLID_15_" class="st0" d="M72.3,8.2h-0.9l0-0.7h0C71.1,8,70.6,8.3,70,8.3c-0.5,0-1-0.2-1.3-0.6s-0.5-1-0.5-1.6
				c0-0.7,0.2-1.3,0.6-1.7c0.4-0.4,0.8-0.6,1.3-0.6c0.6,0,1,0.2,1.2,0.6h0V1.8h1V7C72.3,7.4,72.3,7.8,72.3,8.2z M71.3,6.3V5.6
				c0-0.1,0-0.2,0-0.3c-0.1-0.2-0.2-0.4-0.4-0.6c-0.2-0.2-0.4-0.2-0.7-0.2c-0.4,0-0.6,0.1-0.9,0.4c-0.2,0.3-0.3,0.7-0.3,1.1
				c0,0.4,0.1,0.8,0.3,1.1c0.2,0.3,0.5,0.4,0.8,0.4c0.3,0,0.6-0.1,0.8-0.4C71.2,6.9,71.3,6.6,71.3,6.3z"/>
			<path id="XMLID_11_" class="st0" d="M80.6,5.9c0,0.7-0.2,1.2-0.6,1.7c-0.4,0.4-0.9,0.7-1.6,0.7c-0.6,0-1.2-0.2-1.5-0.6
				c-0.4-0.4-0.6-1-0.6-1.6c0-0.7,0.2-1.2,0.6-1.7c0.4-0.4,0.9-0.6,1.6-0.6c0.6,0,1.2,0.2,1.5,0.6C80.4,4.7,80.6,5.3,80.6,5.9z
				 M79.6,6c0-0.4-0.1-0.7-0.3-1c-0.2-0.3-0.5-0.5-0.9-0.5c-0.4,0-0.7,0.2-0.9,0.5c-0.2,0.3-0.3,0.6-0.3,1.1c0,0.4,0.1,0.7,0.3,1
				c0.2,0.3,0.5,0.5,0.9,0.5c0.4,0,0.7-0.2,0.9-0.5C79.5,6.7,79.6,6.4,79.6,6z"/>
			<path id="XMLID_10_" class="st0" d="M85.8,8.2h-1V5.6c0-0.8-0.3-1.2-0.9-1.2c-0.3,0-0.5,0.1-0.7,0.3C83.1,5,83,5.3,83,5.6v2.6h-1
				V5c0-0.4,0-0.8,0-1.3h0.9l0,0.7h0c0.1-0.2,0.3-0.4,0.5-0.5c0.3-0.2,0.6-0.2,0.9-0.2c0.4,0,0.7,0.1,1,0.4c0.3,0.3,0.5,0.8,0.5,1.4
				V8.2z"/>
			<path id="XMLID_9_" class="st0" d="M92.4,4.5h-1.1v2.1c0,0.5,0.2,0.8,0.6,0.8c0.2,0,0.3,0,0.4,0l0,0.7c-0.2,0.1-0.4,0.1-0.8,0.1
				c-0.4,0-0.7-0.1-0.9-0.4c-0.2-0.2-0.3-0.6-0.3-1.2V4.5h-0.6V3.8h0.6V3l1-0.3v1.1h1.1L92.4,4.5L92.4,4.5z"/>
			<path id="XMLID_8_" class="st0" d="M97.5,8.2h-1V5.7c0-0.8-0.3-1.2-0.9-1.2c-0.5,0-0.8,0.2-0.9,0.7c0,0.1,0,0.2,0,0.3v2.6h-1V1.8
				h1v2.6h0C95,3.9,95.5,3.7,96,3.7c0.4,0,0.7,0.1,1,0.4c0.3,0.3,0.5,0.8,0.5,1.5L97.5,8.2z"/>
			<path id="XMLID_5_" class="st0" d="M102.8,5.8c0,0.2,0,0.3,0,0.4h-2.9c0,0.4,0.2,0.8,0.4,1c0.2,0.2,0.6,0.3,1,0.3
				c0.4,0,0.8-0.1,1.2-0.2l0.2,0.7c-0.4,0.2-0.9,0.3-1.5,0.3c-0.7,0-1.2-0.2-1.6-0.6C99.2,7.2,99,6.7,99,6c0-0.7,0.2-1.2,0.5-1.6
				c0.4-0.5,0.9-0.7,1.5-0.7c0.6,0,1.1,0.2,1.4,0.7C102.7,4.8,102.8,5.2,102.8,5.8z M101.9,5.5c0-0.3-0.1-0.5-0.2-0.7
				c-0.2-0.3-0.4-0.4-0.8-0.4c-0.3,0-0.6,0.1-0.8,0.4C100,5,99.9,5.2,99.9,5.5L101.9,5.5z"/>
		</g>
	</g>
</g>
</svg>
