<svg id="bg" xmlns="http://www.w3.org/2000/svg" xmlns:xlink="http://www.w3.org/1999/xlink" width="1024" height="683.5" viewBox="0 0 1024 683.5">
  <defs>
    <style>
      .cls-1 {
        fill: url(#linear-gradient);
      }

      .cls-10, .cls-11, .cls-2, .cls-3, .cls-4, .cls-5, .cls-6, .cls-7, .cls-8, .cls-9 {
        fill: #fff;
      }

      .cls-2 {
        opacity: 0.01;
      }

      .cls-3 {
        opacity: 0.02;
      }

      .cls-4 {
        opacity: 0.03;
      }

      .cls-5 {
        opacity: 0.06;
      }

      .cls-6 {
        opacity: 0.09;
      }

      .cls-7 {
        opacity: 0.15;
      }

      .cls-8 {
        opacity: 0.2;
      }

      .cls-9 {
        opacity: 0.25;
      }

      .cls-10 {
        opacity: 0.3;
      }

      .cls-11 {
        opacity: 0.5;
      }
    </style>
    <linearGradient id="linear-gradient" x1="512" y1="683" x2="512" gradientUnits="userSpaceOnUse">
      <stop offset="0" stop-color="#f3f5e7"/>
      <stop offset="0.2" stop-color="#07a3bd"/>
      <stop offset="0.35" stop-color="#06689f"/>
      <stop offset="0.55" stop-color="#003976"/>
      <stop offset="0.62" stop-color="#003065"/>
      <stop offset="0.72" stop-color="#002754"/>
      <stop offset="0.85" stop-color="#002048"/>
    </linearGradient>
  </defs>
  <title>splashscreen - flat</title>
  <rect class="cls-1" width="1024" height="683"/>
  <g>
    <path class="cls-2" d="M0,593.22C81.16,390,279.81,246.39,512,246.39S942.84,390,1024,593.22V484.53c-105.46-172.16-295.31-287-512-287S105.46,312.37,0,484.53V593.22Z"/>
    <path class="cls-3" d="M512,246.39C279.81,246.39,81.16,390,0,593.22V683.5H23c52-222,251.19-387.22,489-387.22S949,461.5,1001,683.5h23V593.22C942.84,390,744.19,246.39,512,246.39Z"/>
    <path class="cls-4" d="M512,296.28C274.2,296.28,75,461.5,23,683.5H73.39c50.9-195,228-338.33,438.61-338.33S899.71,488.5,950.61,683.5H1001C949,461.5,749.8,296.28,512,296.28Z"/>
    <path class="cls-5" d="M512,345.17c-210.63,0-387.71,143.33-438.61,338.33h50.75a404.59,404.59,0,0,1,775.72,0h50.75C899.71,488.5,722.63,345.17,512,345.17Z"/>
    <path class="cls-6" d="M512,394.06A403.84,403.84,0,0,0,124.14,683.5h51.32c47.8-140,180.42-240.56,336.54-240.56S800.74,543.5,848.54,683.5h51.32A403.84,403.84,0,0,0,512,394.06Z"/>
    <path class="cls-7" d="M512,442.94c-156.12,0-288.74,100.56-336.54,240.56h52.19a306.76,306.76,0,0,1,568.7,0h52.19C800.74,543.5,668.12,442.94,512,442.94Z"/>
    <path class="cls-8" d="M512,491.83A305.82,305.82,0,0,0,227.65,683.5h53.61a257.85,257.85,0,0,1,461.49,0h53.61A305.82,305.82,0,0,0,512,491.83Z"/>
    <path class="cls-9" d="M512,540.72A257.12,257.12,0,0,0,281.25,683.5h56.35a208.91,208.91,0,0,1,348.79,0h56.35A257.12,257.12,0,0,0,512,540.72Z"/>
    <path class="cls-10" d="M512,589.61A207.64,207.64,0,0,0,337.61,683.5h63.16a160,160,0,0,1,222.46,0h63.16A207.64,207.64,0,0,0,512,589.61Z"/>
    <path class="cls-11" d="M400.77,683.5H623.23A160,160,0,0,0,400.77,683.5Z"/>
  </g>
</svg>
